;Layer: Drill PTH
;EasyEDA v6.2.46, 2019-12-13T21:01:04+01:00
;3005faa94037452eb19f5b3c810bd7e0,39ff71f2194a49368f8d12cd3c9184f8,10
;Gerber Generator version 0.2
M48
INCH,LZ,00.0000
;Holesize 1 = 0.012 INCH
T01C0.012
;Holesize 2 = 0.028 INCH
T02C0.028
;Holesize 3 = 0.028 INCH
T03C0.028
;Holesize 4 = 0.035 INCH
T04C0.035
;Holesize 5 = 0.035 INCH
T05C0.035
;Holesize 6 = 0.036 INCH
T06C0.036
;Holesize 7 = 0.043 INCH
T07C0.043
;Holesize 8 = 0.047 INCH
T08C0.047
;Holesize 9 = 0.051 INCH
T09C0.051
%
G05
G90
T01
X+016839Y+008732
X+011584Y+011488
X+024985Y+010876
T02
X+003500Y+001600
X+004000Y+001600
X+004500Y+001600
X+005000Y+007050
X+005000Y+007550
X+005000Y+008050
T03
X+025900Y+016000
X+025900Y+017000
X+025900Y+018000
X+025900Y+019000
X+002500Y+005450
X+001500Y+005450
T04
X+010500Y+005500
X+012500Y+005500
X+014500Y+005500
X+016500Y+005500
X+018500Y+005500
X+001500Y+017500
X+001500Y+015500
X+001500Y+013500
X+001500Y+011500
X+009500Y+012500
X+020500Y+009950
X+020500Y+005500
X+001500Y+007450
X+001500Y+008450
X+001500Y+009450
X+027500Y+005500
X+027500Y+003500
X+027500Y+001500
X+025500Y+001500
T05
X+022050Y+009550
X+026050Y+009550
X+007500Y+002950
X+007500Y+006950
X+011300Y+001550
X+007300Y+001550
X+022450Y+007950
X+022450Y+003950
X+024500Y+003950
X+024500Y+007950
X+009500Y+006950
X+009500Y+010950
X+013000Y+002500
X+017000Y+002500
X+022050Y+011500
X+026050Y+011500
X+018000Y+002500
X+022000Y+002500
X+022050Y+013550
X+026050Y+013550
T06
X+005500Y+004550
X+004500Y+004550
T07
X+003425Y+016450
X+003425Y+015450
X+003425Y+010450
X+003425Y+009450
X+003425Y+014450
X+003425Y+013450
X+003425Y+011450
X+003425Y+012450
X+006574Y+009450
X+006574Y+010450
X+006574Y+011450
X+006574Y+012450
X+006574Y+013450
X+006574Y+014450
X+006574Y+015450
X+006574Y+016450
T08
X+020720Y+018114
X+023279Y+018114
X+023279Y+019885
X+020720Y+019885
X+010279Y+019885
X+007720Y+019885
X+007720Y+018114
X+010279Y+018114
X+027500Y+007500
X+027500Y+008500
X+027500Y+009500
X+027500Y+010500
X+027500Y+011500
X+027500Y+012500
T09
X+009500Y+014550
X+009500Y+015550
M30
