G04 Layer: TopSolderMaskLayer*
G04 EasyEDA v6.2.46, 2019-12-13T21:01:04+01:00*
G04 3005faa94037452eb19f5b3c810bd7e0,39ff71f2194a49368f8d12cd3c9184f8,10*
G04 Gerber Generator version 0.2*
G04 Scale: 100 percent, Rotated: No, Reflected: No *
G04 Dimensions in inches *
G04 leading zeros omitted , absolute positions ,2 integer and 4 decimal *
%FSLAX24Y24*%
%MOIN*%
G90*
G70D02*

%ADD32C,0.047370*%
%ADD34C,0.070000*%
%ADD35C,0.068000*%
%ADD36C,0.082000*%
%ADD37C,0.086740*%
%ADD40R,0.082803X0.082803*%
%ADD41C,0.082803*%
%ADD43C,0.059000*%
%ADD44C,0.074929*%
%ADD45C,0.078866*%
%ADD47C,0.055000*%

%LPD*%
G54D32*
G01X3500Y1796D02*
G01X3500Y1403D01*
G01X4000Y1796D02*
G01X4000Y1403D01*
G01X4500Y1796D02*
G01X4500Y1403D01*
G01X4803Y7050D02*
G01X5196Y7050D01*
G01X4803Y7550D02*
G01X5196Y7550D01*
G01X4803Y8050D02*
G01X5196Y8050D01*
G36*
G01X10150Y5150D02*
G01X10150Y5850D01*
G01X10850Y5850D01*
G01X10850Y5150D01*
G01X10150Y5150D01*
G37*
G36*
G01X12150Y5150D02*
G01X12150Y5850D01*
G01X12850Y5850D01*
G01X12850Y5150D01*
G01X12150Y5150D01*
G37*
G36*
G01X14150Y5150D02*
G01X14150Y5850D01*
G01X14850Y5850D01*
G01X14850Y5150D01*
G01X14150Y5150D01*
G37*
G36*
G01X16150Y5150D02*
G01X16150Y5850D01*
G01X16850Y5850D01*
G01X16850Y5150D01*
G01X16150Y5150D01*
G37*
G36*
G01X18150Y5150D02*
G01X18150Y5850D01*
G01X18850Y5850D01*
G01X18850Y5150D01*
G01X18150Y5150D01*
G37*
G36*
G01X1150Y17150D02*
G01X1150Y17850D01*
G01X1850Y17850D01*
G01X1850Y17150D01*
G01X1150Y17150D01*
G37*
G36*
G01X1150Y15150D02*
G01X1150Y15850D01*
G01X1850Y15850D01*
G01X1850Y15150D01*
G01X1150Y15150D01*
G37*
G36*
G01X1150Y13150D02*
G01X1150Y13850D01*
G01X1850Y13850D01*
G01X1850Y13150D01*
G01X1150Y13150D01*
G37*
G36*
G01X1150Y11150D02*
G01X1150Y11850D01*
G01X1850Y11850D01*
G01X1850Y11150D01*
G01X1150Y11150D01*
G37*
G36*
G01X9150Y12150D02*
G01X9150Y12850D01*
G01X9850Y12850D01*
G01X9850Y12150D01*
G01X9150Y12150D01*
G37*
G36*
G01X20150Y9600D02*
G01X20150Y10300D01*
G01X20850Y10300D01*
G01X20850Y9600D01*
G01X20150Y9600D01*
G37*
G36*
G01X20150Y5150D02*
G01X20150Y5850D01*
G01X20850Y5850D01*
G01X20850Y5150D01*
G01X20150Y5150D01*
G37*
G54D34*
G01X1500Y7450D03*
G01X1500Y8450D03*
G36*
G01X1150Y9100D02*
G01X1150Y9800D01*
G01X1850Y9800D01*
G01X1850Y9100D01*
G01X1150Y9100D01*
G37*
G54D35*
G01X5500Y4550D03*
G01X4500Y4550D03*
G54D36*
G01X22050Y9550D03*
G01X26050Y9550D03*
G01X7500Y2950D03*
G01X7500Y6950D03*
G01X11300Y1550D03*
G01X7300Y1550D03*
G01X22450Y7950D03*
G01X22450Y3950D03*
G01X24500Y3950D03*
G01X24500Y7950D03*
G01X9500Y6950D03*
G01X9500Y10950D03*
G01X13000Y2500D03*
G01X17000Y2500D03*
G01X22050Y11500D03*
G01X26050Y11500D03*
G36*
G01X27150Y5150D02*
G01X27150Y5850D01*
G01X27850Y5850D01*
G01X27850Y5150D01*
G01X27150Y5150D01*
G37*
G36*
G01X27150Y3150D02*
G01X27150Y3850D01*
G01X27850Y3850D01*
G01X27850Y3150D01*
G01X27150Y3150D01*
G37*
G36*
G01X27150Y1150D02*
G01X27150Y1850D01*
G01X27850Y1850D01*
G01X27850Y1150D01*
G01X27150Y1150D01*
G37*
G54D37*
G01X20720Y18114D03*
G01X23279Y18114D03*
G01X23279Y19885D03*
G01X20720Y19885D03*
G01X10279Y19885D03*
G01X7720Y19885D03*
G01X7720Y18114D03*
G01X10279Y18114D03*
G36*
G01X18065Y13615D02*
G01X18065Y14088D01*
G01X18934Y14088D01*
G01X18934Y13615D01*
G01X18065Y13615D01*
G37*
G36*
G01X18065Y12826D02*
G01X18065Y13301D01*
G01X18934Y13301D01*
G01X18934Y12826D01*
G01X18065Y12826D01*
G37*
G36*
G01X18065Y12040D02*
G01X18065Y12513D01*
G01X18934Y12513D01*
G01X18934Y12040D01*
G01X18065Y12040D01*
G37*
G36*
G01X18065Y11251D02*
G01X18065Y11726D01*
G01X18932Y11726D01*
G01X18932Y11251D01*
G01X18065Y11251D01*
G37*
G36*
G01X18065Y10465D02*
G01X18065Y10938D01*
G01X18934Y10938D01*
G01X18934Y10465D01*
G01X18065Y10465D01*
G37*
G36*
G01X18065Y9678D02*
G01X18065Y10151D01*
G01X18934Y10151D01*
G01X18934Y9678D01*
G01X18065Y9678D01*
G37*
G36*
G01X18065Y8890D02*
G01X18065Y9363D01*
G01X18932Y9363D01*
G01X18932Y8890D01*
G01X18065Y8890D01*
G37*
G36*
G01X18064Y8103D02*
G01X18064Y8576D01*
G01X18932Y8576D01*
G01X18932Y8103D01*
G01X18064Y8103D01*
G37*
G36*
G01X17080Y7315D02*
G01X17080Y8182D01*
G01X17553Y8182D01*
G01X17553Y7315D01*
G01X17080Y7315D01*
G37*
G36*
G01X16293Y7315D02*
G01X16293Y8182D01*
G01X16767Y8182D01*
G01X16767Y7315D01*
G01X16293Y7315D01*
G37*
G36*
G01X15506Y7315D02*
G01X15506Y8182D01*
G01X15980Y8182D01*
G01X15980Y7315D01*
G01X15506Y7315D01*
G37*
G36*
G01X14718Y7315D02*
G01X14718Y8182D01*
G01X15192Y8182D01*
G01X15192Y7315D01*
G01X14718Y7315D01*
G37*
G36*
G01X13931Y7315D02*
G01X13931Y8182D01*
G01X14405Y8182D01*
G01X14405Y7315D01*
G01X13931Y7315D01*
G37*
G36*
G01X13144Y7315D02*
G01X13144Y8182D01*
G01X13618Y8182D01*
G01X13618Y7315D01*
G01X13144Y7315D01*
G37*
G36*
G01X11765Y8103D02*
G01X11765Y8576D01*
G01X12634Y8576D01*
G01X12634Y8103D01*
G01X11765Y8103D01*
G37*
G36*
G01X11765Y8890D02*
G01X11765Y9363D01*
G01X12634Y9363D01*
G01X12634Y8890D01*
G01X11765Y8890D01*
G37*
G36*
G01X11765Y9678D02*
G01X11765Y10151D01*
G01X12634Y10151D01*
G01X12634Y9678D01*
G01X11765Y9678D01*
G37*
G36*
G01X11765Y10465D02*
G01X11765Y10938D01*
G01X12634Y10938D01*
G01X12634Y10465D01*
G01X11765Y10465D01*
G37*
G36*
G01X11765Y11251D02*
G01X11765Y11726D01*
G01X12634Y11726D01*
G01X12634Y11251D01*
G01X11765Y11251D01*
G37*
G36*
G01X11765Y12040D02*
G01X11765Y12513D01*
G01X12634Y12513D01*
G01X12634Y12040D01*
G01X11765Y12040D01*
G37*
G36*
G01X11765Y12826D02*
G01X11765Y13301D01*
G01X12634Y13301D01*
G01X12634Y12826D01*
G01X11765Y12826D01*
G37*
G36*
G01X11765Y13615D02*
G01X11765Y14088D01*
G01X12634Y14088D01*
G01X12634Y13615D01*
G01X11765Y13615D01*
G37*
G54D40*
G01X9500Y14550D03*
G54D41*
G01X9500Y15550D03*
G36*
G01X25605Y15705D02*
G01X25605Y16294D01*
G01X26194Y16294D01*
G01X26194Y15705D01*
G01X25605Y15705D01*
G37*
G54D43*
G01X25900Y17000D03*
G01X25900Y18000D03*
G01X25900Y19000D03*
G54D44*
G01X3425Y16450D03*
G01X3425Y15450D03*
G01X3425Y10450D03*
G01X3425Y9450D03*
G01X3425Y14450D03*
G01X3425Y13450D03*
G01X3425Y11450D03*
G01X3425Y12450D03*
G01X6574Y9450D03*
G01X6574Y10450D03*
G01X6574Y11450D03*
G01X6574Y12450D03*
G01X6574Y13450D03*
G01X6574Y14450D03*
G01X6574Y15450D03*
G01X6574Y16450D03*
G54D45*
G01X27500Y7500D03*
G01X27500Y8500D03*
G01X27500Y9500D03*
G01X27500Y10500D03*
G01X27500Y11500D03*
G36*
G01X27106Y12105D02*
G01X27106Y12894D01*
G01X27893Y12894D01*
G01X27893Y12105D01*
G01X27106Y12105D01*
G37*
G54D47*
G01X2500Y5450D03*
G01X1500Y5450D03*
G36*
G01X25150Y1150D02*
G01X25150Y1850D01*
G01X25850Y1850D01*
G01X25850Y1150D01*
G01X25150Y1150D01*
G37*
G54D36*
G01X18000Y2500D03*
G01X22000Y2500D03*
G01X22050Y13550D03*
G01X26050Y13550D03*
M00*
M02*
