G04 Layer: TopSilkLayer*
G04 EasyEDA v6.2.46, 2019-12-13T21:01:04+01:00*
G04 3005faa94037452eb19f5b3c810bd7e0,39ff71f2194a49368f8d12cd3c9184f8,10*
G04 Gerber Generator version 0.2*
G04 Scale: 100 percent, Rotated: No, Reflected: No *
G04 Dimensions in inches *
G04 leading zeros omitted , absolute positions ,2 integer and 4 decimal *
%FSLAX24Y24*%
%MOIN*%
G90*
G70D02*

%ADD10C,0.010000*%
%ADD28C,0.008000*%
%ADD29C,0.007992*%
%ADD30C,0.007900*%
%ADD31C,0.006000*%

%LPD*%
G54D28*
G01X11000Y5000D02*
G01X10000Y5000D01*
G01X10000Y6000D01*
G01X11000Y6000D01*
G01X11000Y5250D01*
G54D29*
G01X11000Y5000D02*
G01X11000Y5250D01*
G54D28*
G01X13000Y5000D02*
G01X12000Y5000D01*
G01X12000Y6000D01*
G01X13000Y6000D01*
G01X13000Y5250D01*
G54D29*
G01X13000Y5000D02*
G01X13000Y5250D01*
G54D28*
G01X15000Y5000D02*
G01X14000Y5000D01*
G01X14000Y6000D01*
G01X15000Y6000D01*
G01X15000Y5250D01*
G54D29*
G01X15000Y5000D02*
G01X15000Y5250D01*
G54D28*
G01X17000Y5000D02*
G01X16000Y5000D01*
G01X16000Y6000D01*
G01X17000Y6000D01*
G01X17000Y5250D01*
G54D29*
G01X17000Y5000D02*
G01X17000Y5250D01*
G54D28*
G01X19000Y5000D02*
G01X18000Y5000D01*
G01X18000Y6000D01*
G01X19000Y6000D01*
G01X19000Y5250D01*
G54D29*
G01X19000Y5000D02*
G01X19000Y5250D01*
G54D28*
G01X2000Y17000D02*
G01X1000Y17000D01*
G01X1000Y18000D01*
G01X2000Y18000D01*
G01X2000Y17250D01*
G54D29*
G01X2000Y17000D02*
G01X2000Y17250D01*
G54D28*
G01X2000Y15000D02*
G01X1000Y15000D01*
G01X1000Y16000D01*
G01X2000Y16000D01*
G01X2000Y15250D01*
G54D29*
G01X2000Y15000D02*
G01X2000Y15250D01*
G54D28*
G01X2000Y13000D02*
G01X1000Y13000D01*
G01X1000Y14000D01*
G01X2000Y14000D01*
G01X2000Y13250D01*
G54D29*
G01X2000Y13000D02*
G01X2000Y13250D01*
G54D28*
G01X2000Y11000D02*
G01X1000Y11000D01*
G01X1000Y12000D01*
G01X2000Y12000D01*
G01X2000Y11250D01*
G54D29*
G01X2000Y11000D02*
G01X2000Y11250D01*
G54D28*
G01X10000Y12000D02*
G01X9000Y12000D01*
G01X9000Y13000D01*
G01X10000Y13000D01*
G01X10000Y12250D01*
G54D29*
G01X10000Y12000D02*
G01X10000Y12250D01*
G54D28*
G01X21000Y9450D02*
G01X20000Y9450D01*
G01X20000Y10450D01*
G01X21000Y10450D01*
G01X21000Y9700D01*
G54D29*
G01X21000Y9450D02*
G01X21000Y9700D01*
G54D28*
G01X21000Y5000D02*
G01X20000Y5000D01*
G01X20000Y6000D01*
G01X21000Y6000D01*
G01X21000Y5250D01*
G54D29*
G01X21000Y5000D02*
G01X21000Y5250D01*
G54D28*
G01X2000Y9200D02*
G01X2000Y9950D01*
G01X1000Y9950D01*
G01X1000Y6950D01*
G01X2000Y6950D01*
G54D29*
G01X2000Y6950D02*
G01X2000Y9200D01*
G54D10*
G01X6200Y4550D02*
G01X5800Y4550D01*
G01X6000Y4350D02*
G01X6000Y4750D01*
G01X22810Y9080D02*
G01X22810Y10019D01*
G01X22810Y10019D02*
G01X25289Y10019D01*
G01X25289Y10019D02*
G01X25289Y9080D01*
G01X25289Y9080D02*
G01X22810Y9080D01*
G01X7969Y3709D02*
G01X7030Y3709D01*
G01X7030Y3709D02*
G01X7030Y6190D01*
G01X7030Y6190D02*
G01X7969Y6190D01*
G01X7969Y6190D02*
G01X7969Y3709D01*
G01X10539Y2019D02*
G01X10539Y1080D01*
G01X10539Y1080D02*
G01X8060Y1080D01*
G01X8060Y1080D02*
G01X8060Y2019D01*
G01X8060Y2019D02*
G01X10539Y2019D01*
G01X21980Y7190D02*
G01X22919Y7190D01*
G01X22919Y7190D02*
G01X22919Y4709D01*
G01X22919Y4709D02*
G01X21980Y4709D01*
G01X21980Y4709D02*
G01X21980Y7190D01*
G01X24969Y4709D02*
G01X24030Y4709D01*
G01X24030Y4709D02*
G01X24030Y7190D01*
G01X24030Y7190D02*
G01X24969Y7190D01*
G01X24969Y7190D02*
G01X24969Y4709D01*
G01X9969Y7709D02*
G01X9030Y7709D01*
G01X9030Y7709D02*
G01X9030Y10190D01*
G01X9030Y10190D02*
G01X9969Y10190D01*
G01X9969Y10190D02*
G01X9969Y7709D01*
G01X13760Y2030D02*
G01X13760Y2969D01*
G01X13760Y2969D02*
G01X16239Y2969D01*
G01X16239Y2969D02*
G01X16239Y2030D01*
G01X16239Y2030D02*
G01X13760Y2030D01*
G01X22810Y11030D02*
G01X22810Y11969D01*
G01X22810Y11969D02*
G01X25289Y11969D01*
G01X25289Y11969D02*
G01X25289Y11030D01*
G01X25289Y11030D02*
G01X22810Y11030D01*
G54D28*
G01X28000Y5000D02*
G01X27000Y5000D01*
G01X27000Y6000D01*
G01X28000Y6000D01*
G01X28000Y5250D01*
G54D29*
G01X28000Y5000D02*
G01X28000Y5250D01*
G54D28*
G01X28000Y3000D02*
G01X27000Y3000D01*
G01X27000Y4000D01*
G01X28000Y4000D01*
G01X28000Y3250D01*
G54D29*
G01X28000Y3000D02*
G01X28000Y3250D01*
G54D28*
G01X28000Y1000D02*
G01X27000Y1000D01*
G01X27000Y2000D01*
G01X28000Y2000D01*
G01X28000Y1250D01*
G54D29*
G01X28000Y1000D02*
G01X28000Y1250D01*
G54D10*
G01X20857Y20181D02*
G01X20857Y17859D01*
G01X23140Y17859D01*
G01X23140Y20181D01*
G01X20857Y20181D01*
G01X10142Y17818D02*
G01X10142Y20140D01*
G01X7859Y20140D01*
G01X7859Y17818D01*
G01X10142Y17818D01*
G01X12200Y17197D02*
G01X18499Y17197D01*
G01X18499Y7748D01*
G01X12200Y7748D01*
G01X12200Y17197D01*
G01X12987Y13654D02*
G01X12987Y8536D01*
G01X17711Y8536D01*
G01X17711Y13654D01*
G01X12987Y13654D01*
G01X17317Y14835D02*
G01X13380Y14835D01*
G01X13380Y16804D01*
G01X13774Y16804D01*
G01X13774Y15623D01*
G01X14168Y15623D01*
G01X14168Y16804D01*
G01X14561Y16804D01*
G01X14561Y15623D01*
G01X14955Y15623D01*
G01X14955Y16804D01*
G01X15349Y16804D01*
G01X15349Y15623D01*
G01X15743Y15623D01*
G01X15743Y16804D01*
G01X18105Y16804D01*
G01X12593Y14442D02*
G01X18105Y14442D01*
G01X18498Y17197D02*
G01X12199Y17197D01*
G01X12199Y7749D01*
G01X18498Y7749D02*
G01X18498Y17197D01*
G01X12199Y7749D02*
G01X18498Y7749D01*
G54D28*
G01X9000Y16050D02*
G01X10000Y16050D01*
G01X10000Y14050D01*
G01X9000Y14050D01*
G01X9000Y14800D01*
G54D29*
G01X9000Y16050D02*
G01X9000Y14800D01*
G54D10*
G01X4779Y1009D02*
G01X3220Y1009D01*
G54D28*
G01X28025Y20000D02*
G01X24775Y20000D01*
G01X24775Y15000D01*
G01X28025Y15000D01*
G01X28025Y15000D02*
G01X28025Y19967D01*
G01X28025Y16750D02*
G01X27397Y16750D01*
G01X27397Y16250D01*
G01X28025Y16250D01*
G01X28025Y17750D02*
G01X27397Y17750D01*
G01X27397Y17250D01*
G01X28025Y17250D01*
G01X28025Y18750D02*
G01X27397Y18750D01*
G01X27397Y18250D01*
G01X28025Y18250D01*
G54D10*
G01X6150Y8950D02*
G01X6150Y16950D01*
G01X3850Y16950D02*
G01X3850Y8950D01*
G01X6150Y8950D02*
G01X3850Y8950D01*
G01X6150Y16950D02*
G01X5400Y16950D01*
G01X3850Y16950D02*
G01X4600Y16950D01*
G54D28*
G01X28000Y12250D02*
G01X28000Y13000D01*
G01X27000Y13000D01*
G01X27000Y7000D01*
G01X28000Y7000D01*
G54D29*
G01X28000Y7000D02*
G01X28000Y12250D01*
G54D30*
G01X1001Y4951D02*
G01X3001Y4951D01*
G01X3001Y5951D01*
G01X1001Y5951D01*
G01X1001Y4951D01*
G54D10*
G01X5590Y8329D02*
G01X5590Y6770D01*
G54D28*
G01X26000Y1000D02*
G01X25000Y1000D01*
G01X25000Y2000D01*
G01X26000Y2000D01*
G01X26000Y1250D01*
G54D29*
G01X26000Y1000D02*
G01X26000Y1250D01*
G54D10*
G01X18760Y2030D02*
G01X18760Y2969D01*
G01X18760Y2969D02*
G01X21239Y2969D01*
G01X21239Y2969D02*
G01X21239Y2030D01*
G01X21239Y2030D02*
G01X18760Y2030D01*
G01X22810Y13080D02*
G01X22810Y14019D01*
G01X22810Y14019D02*
G01X25289Y14019D01*
G01X25289Y14019D02*
G01X25289Y13080D01*
G01X25289Y13080D02*
G01X22810Y13080D01*
G54D31*
G01X10500Y6448D02*
G01X10540Y6467D01*
G01X10602Y6528D01*
G01X10602Y6100D01*
G01X12519Y6426D02*
G01X12519Y6448D01*
G01X12540Y6488D01*
G01X12560Y6509D01*
G01X12602Y6528D01*
G01X12684Y6528D01*
G01X12725Y6509D01*
G01X12744Y6488D01*
G01X12765Y6448D01*
G01X12765Y6407D01*
G01X12744Y6365D01*
G01X12705Y6303D01*
G01X12500Y6100D01*
G01X12785Y6100D01*
G01X14540Y6528D02*
G01X14765Y6528D01*
G01X14643Y6365D01*
G01X14705Y6365D01*
G01X14744Y6344D01*
G01X14765Y6325D01*
G01X14785Y6263D01*
G01X14785Y6223D01*
G01X14765Y6161D01*
G01X14725Y6119D01*
G01X14664Y6100D01*
G01X14602Y6100D01*
G01X14540Y6119D01*
G01X14519Y6140D01*
G01X14500Y6182D01*
G01X16705Y6528D02*
G01X16500Y6242D01*
G01X16806Y6242D01*
G01X16705Y6528D02*
G01X16705Y6100D01*
G01X18744Y6528D02*
G01X18540Y6528D01*
G01X18519Y6344D01*
G01X18540Y6365D01*
G01X18602Y6386D01*
G01X18664Y6386D01*
G01X18725Y6365D01*
G01X18765Y6325D01*
G01X18785Y6263D01*
G01X18785Y6223D01*
G01X18765Y6161D01*
G01X18725Y6119D01*
G01X18664Y6100D01*
G01X18602Y6100D01*
G01X18540Y6119D01*
G01X18519Y6140D01*
G01X18500Y6182D01*
G01X1744Y18467D02*
G01X1725Y18509D01*
G01X1663Y18528D01*
G01X1623Y18528D01*
G01X1561Y18509D01*
G01X1519Y18448D01*
G01X1500Y18344D01*
G01X1500Y18242D01*
G01X1519Y18161D01*
G01X1561Y18119D01*
G01X1623Y18100D01*
G01X1642Y18100D01*
G01X1705Y18119D01*
G01X1744Y18161D01*
G01X1765Y18223D01*
G01X1765Y18242D01*
G01X1744Y18303D01*
G01X1705Y18344D01*
G01X1642Y18365D01*
G01X1623Y18365D01*
G01X1561Y18344D01*
G01X1519Y18303D01*
G01X1500Y18242D01*
G01X1786Y16528D02*
G01X1582Y16100D01*
G01X1500Y16528D02*
G01X1786Y16528D01*
G01X1601Y14528D02*
G01X1540Y14509D01*
G01X1519Y14467D01*
G01X1519Y14426D01*
G01X1540Y14386D01*
G01X1582Y14365D01*
G01X1663Y14344D01*
G01X1725Y14325D01*
G01X1765Y14284D01*
G01X1786Y14242D01*
G01X1786Y14182D01*
G01X1765Y14140D01*
G01X1744Y14119D01*
G01X1684Y14100D01*
G01X1601Y14100D01*
G01X1540Y14119D01*
G01X1519Y14140D01*
G01X1500Y14182D01*
G01X1500Y14242D01*
G01X1519Y14284D01*
G01X1561Y14325D01*
G01X1623Y14344D01*
G01X1705Y14365D01*
G01X1744Y14386D01*
G01X1765Y14426D01*
G01X1765Y14467D01*
G01X1744Y14509D01*
G01X1684Y14528D01*
G01X1601Y14528D01*
G01X1765Y12386D02*
G01X1744Y12325D01*
G01X1705Y12284D01*
G01X1642Y12263D01*
G01X1623Y12263D01*
G01X1561Y12284D01*
G01X1519Y12325D01*
G01X1500Y12386D01*
G01X1500Y12407D01*
G01X1519Y12467D01*
G01X1561Y12509D01*
G01X1623Y12528D01*
G01X1642Y12528D01*
G01X1705Y12509D01*
G01X1744Y12467D01*
G01X1765Y12386D01*
G01X1765Y12284D01*
G01X1744Y12182D01*
G01X1705Y12119D01*
G01X1642Y12100D01*
G01X1601Y12100D01*
G01X1540Y12119D01*
G01X1519Y12161D01*
G01X9200Y13519D02*
G01X9240Y13538D01*
G01X9302Y13600D01*
G01X9302Y13171D01*
G01X9560Y13600D02*
G01X9498Y13580D01*
G01X9457Y13519D01*
G01X9436Y13415D01*
G01X9436Y13355D01*
G01X9457Y13253D01*
G01X9498Y13190D01*
G01X9560Y13171D01*
G01X9601Y13171D01*
G01X9661Y13190D01*
G01X9702Y13253D01*
G01X9723Y13355D01*
G01X9723Y13415D01*
G01X9702Y13519D01*
G01X9661Y13580D01*
G01X9601Y13600D01*
G01X9560Y13600D01*
G01X20500Y10898D02*
G01X20540Y10917D01*
G01X20602Y10978D01*
G01X20602Y10550D01*
G01X20736Y10898D02*
G01X20777Y10917D01*
G01X20839Y10978D01*
G01X20839Y10550D01*
G01X20500Y6448D02*
G01X20540Y6467D01*
G01X20602Y6528D01*
G01X20602Y6100D01*
G01X20757Y6426D02*
G01X20757Y6448D01*
G01X20777Y6488D01*
G01X20798Y6509D01*
G01X20839Y6528D01*
G01X20921Y6528D01*
G01X20961Y6509D01*
G01X20982Y6488D01*
G01X21002Y6448D01*
G01X21002Y6407D01*
G01X20982Y6365D01*
G01X20942Y6303D01*
G01X20736Y6100D01*
G01X21023Y6100D01*
G01X2482Y8072D02*
G01X2440Y8031D01*
G01X2421Y7970D01*
G01X2421Y7888D01*
G01X2440Y7827D01*
G01X2482Y7786D01*
G01X2523Y7786D01*
G01X2563Y7806D01*
G01X2584Y7827D01*
G01X2605Y7868D01*
G01X2646Y7991D01*
G01X2665Y8031D01*
G01X2686Y8052D01*
G01X2726Y8072D01*
G01X2788Y8072D01*
G01X2830Y8031D01*
G01X2850Y7970D01*
G01X2850Y7888D01*
G01X2830Y7827D01*
G01X2788Y7786D01*
G01X2421Y8330D02*
G01X2440Y8289D01*
G01X2482Y8248D01*
G01X2523Y8228D01*
G01X2584Y8207D01*
G01X2686Y8207D01*
G01X2748Y8228D01*
G01X2788Y8248D01*
G01X2830Y8289D01*
G01X2850Y8330D01*
G01X2850Y8412D01*
G01X2830Y8453D01*
G01X2788Y8494D01*
G01X2748Y8514D01*
G01X2686Y8535D01*
G01X2584Y8535D01*
G01X2523Y8514D01*
G01X2482Y8494D01*
G01X2440Y8453D01*
G01X2421Y8412D01*
G01X2421Y8330D01*
G01X2421Y8670D02*
G01X2850Y8670D01*
G01X2421Y8805D02*
G01X2850Y8805D01*
G01X2850Y8805D02*
G01X2850Y9050D01*
G01X4906Y2948D02*
G01X4885Y2989D01*
G01X4844Y3030D01*
G01X4805Y3050D01*
G01X4722Y3050D01*
G01X4681Y3030D01*
G01X4640Y2989D01*
G01X4619Y2948D01*
G01X4600Y2887D01*
G01X4600Y2785D01*
G01X4619Y2723D01*
G01X4640Y2682D01*
G01X4681Y2641D01*
G01X4722Y2621D01*
G01X4805Y2621D01*
G01X4844Y2641D01*
G01X4885Y2682D01*
G01X4906Y2723D01*
G01X5082Y3050D02*
G01X5307Y3050D01*
G01X5185Y2887D01*
G01X5246Y2887D01*
G01X5286Y2866D01*
G01X5307Y2846D01*
G01X5327Y2785D01*
G01X5327Y2744D01*
G01X5307Y2682D01*
G01X5267Y2641D01*
G01X5205Y2621D01*
G01X5143Y2621D01*
G01X5082Y2641D01*
G01X5061Y2662D01*
G01X5042Y2703D01*
G01X24050Y10548D02*
G01X24050Y10119D01*
G01X24050Y10548D02*
G01X24234Y10548D01*
G01X24294Y10528D01*
G01X24315Y10509D01*
G01X24335Y10467D01*
G01X24335Y10426D01*
G01X24315Y10386D01*
G01X24294Y10365D01*
G01X24234Y10344D01*
G01X24050Y10344D01*
G01X24193Y10344D02*
G01X24335Y10119D01*
G01X24492Y10446D02*
G01X24492Y10467D01*
G01X24511Y10509D01*
G01X24532Y10528D01*
G01X24573Y10548D01*
G01X24655Y10548D01*
G01X24696Y10528D01*
G01X24717Y10509D01*
G01X24736Y10467D01*
G01X24736Y10426D01*
G01X24717Y10386D01*
G01X24676Y10323D01*
G01X24471Y10119D01*
G01X24757Y10119D01*
G01X6501Y4950D02*
G01X6930Y4950D01*
G01X6501Y4950D02*
G01X6501Y5134D01*
G01X6521Y5194D01*
G01X6540Y5215D01*
G01X6581Y5236D01*
G01X6622Y5236D01*
G01X6664Y5215D01*
G01X6685Y5194D01*
G01X6705Y5134D01*
G01X6705Y4950D01*
G01X6705Y5092D02*
G01X6930Y5236D01*
G01X6501Y5576D02*
G01X6786Y5371D01*
G01X6786Y5678D01*
G01X6501Y5576D02*
G01X6930Y5576D01*
G01X8591Y980D02*
G01X8591Y551D01*
G01X8591Y980D02*
G01X8775Y980D01*
G01X8836Y960D01*
G01X8857Y940D01*
G01X8877Y899D01*
G01X8877Y858D01*
G01X8857Y817D01*
G01X8836Y796D01*
G01X8775Y776D01*
G01X8591Y776D01*
G01X8734Y776D02*
G01X8877Y551D01*
G01X9258Y980D02*
G01X9053Y980D01*
G01X9033Y796D01*
G01X9053Y817D01*
G01X9115Y837D01*
G01X9176Y837D01*
G01X9237Y817D01*
G01X9278Y776D01*
G01X9299Y715D01*
G01X9299Y674D01*
G01X9278Y612D01*
G01X9237Y571D01*
G01X9176Y551D01*
G01X9115Y551D01*
G01X9053Y571D01*
G01X9033Y592D01*
G01X9012Y633D01*
G01X23019Y5241D02*
G01X23448Y5241D01*
G01X23019Y5241D02*
G01X23019Y5425D01*
G01X23039Y5486D01*
G01X23059Y5507D01*
G01X23100Y5527D01*
G01X23141Y5527D01*
G01X23182Y5507D01*
G01X23203Y5486D01*
G01X23223Y5425D01*
G01X23223Y5241D01*
G01X23223Y5384D02*
G01X23448Y5527D01*
G01X23019Y5949D02*
G01X23448Y5744D01*
G01X23019Y5662D02*
G01X23019Y5949D01*
G01X23501Y5950D02*
G01X23930Y5950D01*
G01X23501Y5950D02*
G01X23501Y6134D01*
G01X23521Y6194D01*
G01X23540Y6215D01*
G01X23581Y6236D01*
G01X23622Y6236D01*
G01X23664Y6215D01*
G01X23685Y6194D01*
G01X23705Y6134D01*
G01X23705Y5950D01*
G01X23705Y6092D02*
G01X23930Y6236D01*
G01X23501Y6473D02*
G01X23521Y6411D01*
G01X23561Y6392D01*
G01X23602Y6392D01*
G01X23643Y6411D01*
G01X23664Y6453D01*
G01X23685Y6534D01*
G01X23705Y6596D01*
G01X23746Y6636D01*
G01X23786Y6657D01*
G01X23847Y6657D01*
G01X23889Y6636D01*
G01X23910Y6617D01*
G01X23930Y6555D01*
G01X23930Y6473D01*
G01X23910Y6411D01*
G01X23889Y6392D01*
G01X23847Y6371D01*
G01X23786Y6371D01*
G01X23746Y6392D01*
G01X23705Y6432D01*
G01X23685Y6494D01*
G01X23664Y6576D01*
G01X23643Y6617D01*
G01X23602Y6636D01*
G01X23561Y6636D01*
G01X23521Y6617D01*
G01X23501Y6555D01*
G01X23501Y6473D01*
G01X8501Y8950D02*
G01X8930Y8950D01*
G01X8501Y8950D02*
G01X8501Y9134D01*
G01X8521Y9194D01*
G01X8540Y9215D01*
G01X8581Y9236D01*
G01X8622Y9236D01*
G01X8664Y9215D01*
G01X8685Y9194D01*
G01X8705Y9134D01*
G01X8705Y8950D01*
G01X8705Y9092D02*
G01X8930Y9236D01*
G01X8581Y9371D02*
G01X8561Y9411D01*
G01X8501Y9473D01*
G01X8930Y9473D01*
G01X15000Y3498D02*
G01X15000Y3069D01*
G01X15000Y3498D02*
G01X15184Y3498D01*
G01X15244Y3478D01*
G01X15265Y3459D01*
G01X15285Y3417D01*
G01X15285Y3376D01*
G01X15265Y3336D01*
G01X15244Y3315D01*
G01X15184Y3294D01*
G01X15000Y3294D01*
G01X15143Y3294D02*
G01X15285Y3069D01*
G01X15421Y3417D02*
G01X15461Y3438D01*
G01X15523Y3498D01*
G01X15523Y3069D01*
G01X15781Y3498D02*
G01X15719Y3478D01*
G01X15678Y3417D01*
G01X15659Y3315D01*
G01X15659Y3253D01*
G01X15678Y3151D01*
G01X15719Y3090D01*
G01X15781Y3069D01*
G01X15822Y3069D01*
G01X15884Y3090D01*
G01X15925Y3151D01*
G01X15944Y3253D01*
G01X15944Y3315D01*
G01X15925Y3417D01*
G01X15884Y3478D01*
G01X15822Y3498D01*
G01X15781Y3498D01*
G01X24050Y12498D02*
G01X24050Y12069D01*
G01X24050Y12498D02*
G01X24234Y12498D01*
G01X24294Y12478D01*
G01X24315Y12459D01*
G01X24335Y12417D01*
G01X24335Y12376D01*
G01X24315Y12336D01*
G01X24294Y12315D01*
G01X24234Y12294D01*
G01X24050Y12294D01*
G01X24193Y12294D02*
G01X24335Y12069D01*
G01X24736Y12355D02*
G01X24717Y12294D01*
G01X24676Y12253D01*
G01X24614Y12234D01*
G01X24593Y12234D01*
G01X24532Y12253D01*
G01X24492Y12294D01*
G01X24471Y12355D01*
G01X24471Y12376D01*
G01X24492Y12438D01*
G01X24532Y12478D01*
G01X24593Y12498D01*
G01X24614Y12498D01*
G01X24676Y12478D01*
G01X24717Y12438D01*
G01X24736Y12355D01*
G01X24736Y12253D01*
G01X24717Y12151D01*
G01X24676Y12090D01*
G01X24614Y12069D01*
G01X24573Y12069D01*
G01X24511Y12090D01*
G01X24492Y12130D01*
G01X26785Y6588D02*
G01X26744Y6630D01*
G01X26684Y6650D01*
G01X26602Y6650D01*
G01X26540Y6630D01*
G01X26500Y6588D01*
G01X26500Y6548D01*
G01X26519Y6507D01*
G01X26540Y6486D01*
G01X26581Y6465D01*
G01X26705Y6425D01*
G01X26744Y6405D01*
G01X26765Y6384D01*
G01X26785Y6344D01*
G01X26785Y6282D01*
G01X26744Y6240D01*
G01X26684Y6221D01*
G01X26602Y6221D01*
G01X26540Y6240D01*
G01X26500Y6282D01*
G01X27043Y6650D02*
G01X27002Y6630D01*
G01X26961Y6588D01*
G01X26942Y6548D01*
G01X26921Y6486D01*
G01X26921Y6384D01*
G01X26942Y6323D01*
G01X26961Y6282D01*
G01X27002Y6240D01*
G01X27043Y6221D01*
G01X27126Y6221D01*
G01X27167Y6240D01*
G01X27207Y6282D01*
G01X27227Y6323D01*
G01X27248Y6384D01*
G01X27248Y6486D01*
G01X27227Y6548D01*
G01X27207Y6588D01*
G01X27167Y6630D01*
G01X27126Y6650D01*
G01X27043Y6650D01*
G01X27384Y6650D02*
G01X27384Y6221D01*
G01X27384Y6221D02*
G01X27628Y6221D01*
G01X27927Y6650D02*
G01X27764Y6221D01*
G01X27927Y6650D02*
G01X28090Y6221D01*
G01X27825Y6363D02*
G01X28030Y6363D01*
G01X28226Y6650D02*
G01X28226Y6221D01*
G01X28226Y6650D02*
G01X28410Y6650D01*
G01X28472Y6630D01*
G01X28492Y6609D01*
G01X28513Y6569D01*
G01X28513Y6528D01*
G01X28492Y6486D01*
G01X28472Y6465D01*
G01X28410Y6446D01*
G01X28226Y6446D01*
G01X28369Y6446D02*
G01X28513Y6221D01*
G01X26850Y4650D02*
G01X27014Y4221D01*
G01X27177Y4650D02*
G01X27014Y4221D01*
G01X27618Y4548D02*
G01X27598Y4588D01*
G01X27557Y4630D01*
G01X27517Y4650D01*
G01X27435Y4650D01*
G01X27393Y4630D01*
G01X27352Y4588D01*
G01X27332Y4548D01*
G01X27311Y4486D01*
G01X27311Y4384D01*
G01X27332Y4323D01*
G01X27352Y4282D01*
G01X27393Y4240D01*
G01X27435Y4221D01*
G01X27517Y4221D01*
G01X27557Y4240D01*
G01X27598Y4282D01*
G01X27618Y4323D01*
G01X28060Y4548D02*
G01X28039Y4588D01*
G01X28000Y4630D01*
G01X27959Y4650D01*
G01X27877Y4650D01*
G01X27835Y4630D01*
G01X27794Y4588D01*
G01X27775Y4548D01*
G01X27753Y4486D01*
G01X27753Y4384D01*
G01X27775Y4323D01*
G01X27794Y4282D01*
G01X27835Y4240D01*
G01X27877Y4221D01*
G01X27959Y4221D01*
G01X28000Y4240D01*
G01X28039Y4282D01*
G01X28060Y4323D01*
G01X27206Y2598D02*
G01X27185Y2638D01*
G01X27144Y2680D01*
G01X27105Y2700D01*
G01X27022Y2700D01*
G01X26981Y2680D01*
G01X26940Y2638D01*
G01X26919Y2598D01*
G01X26900Y2536D01*
G01X26900Y2434D01*
G01X26919Y2373D01*
G01X26940Y2332D01*
G01X26981Y2290D01*
G01X27022Y2271D01*
G01X27105Y2271D01*
G01X27144Y2290D01*
G01X27185Y2332D01*
G01X27206Y2373D01*
G01X27206Y2434D01*
G01X27105Y2434D02*
G01X27206Y2434D01*
G01X27342Y2700D02*
G01X27342Y2271D01*
G01X27342Y2700D02*
G01X27627Y2271D01*
G01X27627Y2700D02*
G01X27627Y2271D01*
G01X27763Y2700D02*
G01X27763Y2271D01*
G01X27763Y2700D02*
G01X27906Y2700D01*
G01X27968Y2680D01*
G01X28009Y2638D01*
G01X28028Y2598D01*
G01X28050Y2536D01*
G01X28050Y2434D01*
G01X28028Y2373D01*
G01X28009Y2332D01*
G01X27968Y2290D01*
G01X27906Y2271D01*
G01X27763Y2271D01*
G01X21100Y20850D02*
G01X21100Y20419D01*
G01X21100Y20850D02*
G01X21365Y20850D01*
G01X21100Y20644D02*
G01X21264Y20644D01*
G01X21501Y20850D02*
G01X21501Y20419D01*
G01X21501Y20419D02*
G01X21746Y20419D01*
G01X22044Y20850D02*
G01X21881Y20419D01*
G01X22044Y20850D02*
G01X22209Y20419D01*
G01X21943Y20563D02*
G01X22147Y20563D01*
G01X22630Y20788D02*
G01X22589Y20830D01*
G01X22527Y20850D01*
G01X22446Y20850D01*
G01X22385Y20830D01*
G01X22343Y20788D01*
G01X22343Y20748D01*
G01X22364Y20707D01*
G01X22385Y20686D01*
G01X22425Y20665D01*
G01X22547Y20625D01*
G01X22589Y20605D01*
G01X22610Y20584D01*
G01X22630Y20542D01*
G01X22630Y20482D01*
G01X22589Y20440D01*
G01X22527Y20419D01*
G01X22446Y20419D01*
G01X22385Y20440D01*
G01X22343Y20482D01*
G01X22764Y20850D02*
G01X22764Y20419D01*
G01X23051Y20850D02*
G01X23051Y20419D01*
G01X22764Y20644D02*
G01X23051Y20644D01*
G01X8100Y20800D02*
G01X8100Y20369D01*
G01X8100Y20800D02*
G01X8284Y20800D01*
G01X8344Y20780D01*
G01X8365Y20759D01*
G01X8385Y20717D01*
G01X8385Y20677D01*
G01X8365Y20636D01*
G01X8344Y20615D01*
G01X8284Y20594D01*
G01X8100Y20594D01*
G01X8243Y20594D02*
G01X8385Y20369D01*
G01X8521Y20800D02*
G01X8521Y20369D01*
G01X8521Y20800D02*
G01X8786Y20800D01*
G01X8521Y20594D02*
G01X8685Y20594D01*
G01X8521Y20369D02*
G01X8786Y20369D01*
G01X9209Y20738D02*
G01X9168Y20780D01*
G01X9106Y20800D01*
G01X9025Y20800D01*
G01X8963Y20780D01*
G01X8922Y20738D01*
G01X8922Y20698D01*
G01X8943Y20657D01*
G01X8963Y20636D01*
G01X9003Y20615D01*
G01X9127Y20575D01*
G01X9168Y20555D01*
G01X9188Y20534D01*
G01X9209Y20492D01*
G01X9209Y20432D01*
G01X9168Y20390D01*
G01X9106Y20369D01*
G01X9025Y20369D01*
G01X8963Y20390D01*
G01X8922Y20432D01*
G01X9343Y20800D02*
G01X9343Y20369D01*
G01X9343Y20800D02*
G01X9610Y20800D01*
G01X9343Y20594D02*
G01X9506Y20594D01*
G01X9343Y20369D02*
G01X9610Y20369D01*
G01X9888Y20800D02*
G01X9888Y20369D01*
G01X9744Y20800D02*
G01X10031Y20800D01*
G01X14100Y17900D02*
G01X14100Y17470D01*
G01X14100Y17900D02*
G01X14365Y17900D01*
G01X14100Y17695D02*
G01X14264Y17695D01*
G01X14100Y17470D02*
G01X14365Y17470D01*
G01X14786Y17839D02*
G01X14746Y17880D01*
G01X14685Y17900D01*
G01X14602Y17900D01*
G01X14542Y17880D01*
G01X14501Y17839D01*
G01X14501Y17798D01*
G01X14521Y17757D01*
G01X14542Y17736D01*
G01X14582Y17716D01*
G01X14705Y17675D01*
G01X14746Y17655D01*
G01X14767Y17634D01*
G01X14786Y17593D01*
G01X14786Y17532D01*
G01X14746Y17491D01*
G01X14685Y17470D01*
G01X14602Y17470D01*
G01X14542Y17491D01*
G01X14501Y17532D01*
G01X14922Y17900D02*
G01X14922Y17470D01*
G01X14922Y17900D02*
G01X15106Y17900D01*
G01X15168Y17880D01*
G01X15188Y17859D01*
G01X15209Y17818D01*
G01X15209Y17757D01*
G01X15188Y17716D01*
G01X15168Y17695D01*
G01X15106Y17675D01*
G01X14922Y17675D01*
G01X15343Y17655D02*
G01X15711Y17655D01*
G01X15847Y17818D02*
G01X15888Y17839D01*
G01X15948Y17900D01*
G01X15948Y17470D01*
G01X16105Y17798D02*
G01X16105Y17818D01*
G01X16125Y17859D01*
G01X16144Y17880D01*
G01X16185Y17900D01*
G01X16268Y17900D01*
G01X16309Y17880D01*
G01X16330Y17859D01*
G01X16350Y17818D01*
G01X16350Y17777D01*
G01X16330Y17736D01*
G01X16289Y17675D01*
G01X16084Y17470D01*
G01X16369Y17470D01*
G01X16505Y17900D02*
G01X16505Y17470D01*
G01X16505Y17900D02*
G01X16771Y17900D01*
G01X16505Y17695D02*
G01X16668Y17695D01*
G54D28*
G01X13617Y11649D02*
G01X13617Y10886D01*
G01X13617Y11649D02*
G01X14089Y11649D01*
G01X13617Y11286D02*
G01X13907Y11286D01*
G01X13617Y10886D02*
G01X14089Y10886D01*
G01X14838Y11540D02*
G01X14766Y11613D01*
G01X14657Y11649D01*
G01X14511Y11649D01*
G01X14402Y11613D01*
G01X14329Y11540D01*
G01X14329Y11468D01*
G01X14366Y11395D01*
G01X14402Y11359D01*
G01X14475Y11322D01*
G01X14693Y11249D01*
G01X14766Y11213D01*
G01X14802Y11177D01*
G01X14838Y11104D01*
G01X14838Y10995D01*
G01X14766Y10922D01*
G01X14657Y10886D01*
G01X14511Y10886D01*
G01X14402Y10922D01*
G01X14329Y10995D01*
G01X15078Y11649D02*
G01X15078Y10886D01*
G01X15078Y11649D02*
G01X15406Y11649D01*
G01X15515Y11613D01*
G01X15551Y11577D01*
G01X15587Y11504D01*
G01X15587Y11395D01*
G01X15551Y11322D01*
G01X15515Y11286D01*
G01X15406Y11249D01*
G01X15078Y11249D01*
G01X15827Y11504D02*
G01X15900Y11540D01*
G01X16009Y11649D01*
G01X16009Y10886D01*
G01X16286Y11468D02*
G01X16286Y11504D01*
G01X16322Y11577D01*
G01X16358Y11613D01*
G01X16431Y11649D01*
G01X16577Y11649D01*
G01X16649Y11613D01*
G01X16686Y11577D01*
G01X16722Y11504D01*
G01X16722Y11431D01*
G01X16686Y11359D01*
G01X16613Y11249D01*
G01X16249Y10886D01*
G01X16758Y10886D01*
G01X16998Y11649D02*
G01X16998Y10886D01*
G01X16998Y11649D02*
G01X17471Y11649D01*
G01X16998Y11286D02*
G01X17289Y11286D01*
G54D31*
G01X8950Y16750D02*
G01X8950Y16321D01*
G01X8950Y16750D02*
G01X9093Y16750D01*
G01X9155Y16730D01*
G01X9194Y16688D01*
G01X9215Y16648D01*
G01X9235Y16586D01*
G01X9235Y16484D01*
G01X9215Y16423D01*
G01X9194Y16382D01*
G01X9155Y16340D01*
G01X9093Y16321D01*
G01X8950Y16321D01*
G01X9657Y16688D02*
G01X9617Y16730D01*
G01X9555Y16750D01*
G01X9473Y16750D01*
G01X9411Y16730D01*
G01X9371Y16688D01*
G01X9371Y16648D01*
G01X9392Y16607D01*
G01X9411Y16586D01*
G01X9452Y16565D01*
G01X9576Y16525D01*
G01X9617Y16505D01*
G01X9636Y16484D01*
G01X9657Y16444D01*
G01X9657Y16382D01*
G01X9617Y16340D01*
G01X9555Y16321D01*
G01X9473Y16321D01*
G01X9411Y16340D01*
G01X9371Y16382D01*
G01X9793Y16750D02*
G01X9793Y16321D01*
G01X9793Y16750D02*
G01X9977Y16750D01*
G01X10038Y16730D01*
G01X10059Y16709D01*
G01X10078Y16669D01*
G01X10078Y16628D01*
G01X10059Y16586D01*
G01X10038Y16565D01*
G01X9977Y16546D01*
G01X9793Y16546D02*
G01X9977Y16546D01*
G01X10038Y16525D01*
G01X10059Y16505D01*
G01X10078Y16463D01*
G01X10078Y16403D01*
G01X10059Y16361D01*
G01X10038Y16340D01*
G01X9977Y16321D01*
G01X9793Y16321D01*
G01X2850Y800D02*
G01X2850Y371D01*
G01X3136Y800D02*
G01X3136Y371D01*
G01X2850Y596D02*
G01X3136Y596D01*
G01X3415Y800D02*
G01X3415Y371D01*
G01X3271Y800D02*
G01X3557Y800D01*
G01X3978Y800D02*
G01X3775Y371D01*
G01X3692Y800D02*
G01X3978Y800D01*
G01X4155Y800D02*
G01X4380Y800D01*
G01X4257Y637D01*
G01X4319Y637D01*
G01X4359Y616D01*
G01X4380Y596D01*
G01X4400Y535D01*
G01X4400Y494D01*
G01X4380Y432D01*
G01X4338Y391D01*
G01X4278Y371D01*
G01X4215Y371D01*
G01X4155Y391D01*
G01X4134Y412D01*
G01X4113Y453D01*
G01X4576Y800D02*
G01X4801Y800D01*
G01X4678Y637D01*
G01X4739Y637D01*
G01X4781Y616D01*
G01X4801Y596D01*
G01X4822Y535D01*
G01X4822Y494D01*
G01X4801Y432D01*
G01X4760Y391D01*
G01X4698Y371D01*
G01X4638Y371D01*
G01X4576Y391D01*
G01X4555Y412D01*
G01X4534Y453D01*
G01X4997Y800D02*
G01X5222Y800D01*
G01X5100Y637D01*
G01X5160Y637D01*
G01X5202Y616D01*
G01X5222Y596D01*
G01X5243Y535D01*
G01X5243Y494D01*
G01X5222Y432D01*
G01X5181Y391D01*
G01X5119Y371D01*
G01X5059Y371D01*
G01X4997Y391D01*
G01X4977Y412D01*
G01X4956Y453D01*
G01X26400Y20528D02*
G01X26400Y20100D01*
G01X26400Y20528D02*
G01X26543Y20528D01*
G01X26605Y20509D01*
G01X26644Y20467D01*
G01X26665Y20427D01*
G01X26685Y20365D01*
G01X26685Y20263D01*
G01X26665Y20202D01*
G01X26644Y20161D01*
G01X26605Y20119D01*
G01X26543Y20100D01*
G01X26400Y20100D01*
G01X26821Y20528D02*
G01X26821Y20100D01*
G01X27107Y20528D02*
G01X27107Y20100D01*
G01X26821Y20325D02*
G01X27107Y20325D01*
G01X27385Y20528D02*
G01X27385Y20100D01*
G01X27243Y20528D02*
G01X27528Y20528D01*
G01X27685Y20427D02*
G01X27685Y20448D01*
G01X27705Y20488D01*
G01X27725Y20509D01*
G01X27765Y20528D01*
G01X27847Y20528D01*
G01X27889Y20509D01*
G01X27910Y20488D01*
G01X27930Y20448D01*
G01X27930Y20407D01*
G01X27910Y20365D01*
G01X27868Y20303D01*
G01X27664Y20100D01*
G01X27950Y20100D01*
G01X28106Y20427D02*
G01X28106Y20448D01*
G01X28126Y20488D01*
G01X28147Y20509D01*
G01X28188Y20528D01*
G01X28269Y20528D01*
G01X28310Y20509D01*
G01X28331Y20488D01*
G01X28351Y20448D01*
G01X28351Y20407D01*
G01X28331Y20365D01*
G01X28289Y20303D01*
G01X28085Y20100D01*
G01X28372Y20100D01*
G54D28*
G01X25150Y15915D02*
G01X25222Y15951D01*
G01X25331Y16061D01*
G01X25331Y15298D01*
G54D31*
G01X4749Y11773D02*
G01X5179Y11569D01*
G01X4749Y11487D02*
G01X4749Y11773D01*
G01X4749Y12113D02*
G01X5035Y11908D01*
G01X5035Y12215D01*
G01X4749Y12113D02*
G01X5179Y12113D01*
G01X4749Y12350D02*
G01X5179Y12350D01*
G01X4749Y12637D02*
G01X5179Y12637D01*
G01X4954Y12350D02*
G01X4954Y12637D01*
G01X4851Y13078D02*
G01X4810Y13058D01*
G01X4770Y13017D01*
G01X4749Y12976D01*
G01X4749Y12894D01*
G01X4770Y12853D01*
G01X4810Y12812D01*
G01X4851Y12792D01*
G01X4913Y12772D01*
G01X5015Y12772D01*
G01X5076Y12792D01*
G01X5117Y12812D01*
G01X5158Y12853D01*
G01X5179Y12894D01*
G01X5179Y12976D01*
G01X5158Y13017D01*
G01X5117Y13058D01*
G01X5076Y13078D01*
G01X4749Y13418D02*
G01X5035Y13213D01*
G01X5035Y13520D01*
G01X4749Y13418D02*
G01X5179Y13418D01*
G01X4749Y13778D02*
G01X4770Y13717D01*
G01X4831Y13676D01*
G01X4933Y13655D01*
G01X4995Y13655D01*
G01X5097Y13676D01*
G01X5158Y13717D01*
G01X5179Y13778D01*
G01X5179Y13819D01*
G01X5158Y13880D01*
G01X5097Y13921D01*
G01X4995Y13942D01*
G01X4933Y13942D01*
G01X4831Y13921D01*
G01X4770Y13880D01*
G01X4749Y13819D01*
G01X4749Y13778D01*
G01X4749Y14322D02*
G01X4749Y14117D01*
G01X4933Y14097D01*
G01X4913Y14117D01*
G01X4892Y14179D01*
G01X4892Y14240D01*
G01X4913Y14302D01*
G01X4954Y14342D01*
G01X5015Y14363D01*
G01X5056Y14363D01*
G01X5117Y14342D01*
G01X5158Y14302D01*
G01X5179Y14240D01*
G01X5179Y14179D01*
G01X5158Y14117D01*
G01X5138Y14097D01*
G01X5097Y14077D01*
G01X4831Y14498D02*
G01X4810Y14539D01*
G01X4749Y14600D01*
G01X5179Y14600D01*
G01X28235Y9050D02*
G01X28664Y9050D01*
G01X28235Y9050D02*
G01X28235Y9234D01*
G01X28255Y9294D01*
G01X28275Y9315D01*
G01X28315Y9336D01*
G01X28377Y9336D01*
G01X28418Y9315D01*
G01X28439Y9294D01*
G01X28460Y9234D01*
G01X28460Y9050D01*
G01X28235Y9471D02*
G01X28664Y9471D01*
G01X28235Y9471D02*
G01X28235Y9655D01*
G01X28255Y9717D01*
G01X28275Y9736D01*
G01X28315Y9757D01*
G01X28356Y9757D01*
G01X28397Y9736D01*
G01X28418Y9717D01*
G01X28439Y9655D01*
G01X28439Y9471D01*
G01X28439Y9615D02*
G01X28664Y9757D01*
G01X28235Y10015D02*
G01X28255Y9975D01*
G01X28296Y9934D01*
G01X28336Y9913D01*
G01X28397Y9892D01*
G01X28500Y9892D01*
G01X28561Y9913D01*
G01X28602Y9934D01*
G01X28643Y9975D01*
G01X28664Y10015D01*
G01X28664Y10096D01*
G01X28643Y10138D01*
G01X28602Y10178D01*
G01X28561Y10200D01*
G01X28500Y10219D01*
G01X28397Y10219D01*
G01X28336Y10200D01*
G01X28296Y10178D01*
G01X28255Y10138D01*
G01X28235Y10096D01*
G01X28235Y10015D01*
G01X28336Y10661D02*
G01X28296Y10640D01*
G01X28255Y10600D01*
G01X28235Y10559D01*
G01X28235Y10478D01*
G01X28255Y10436D01*
G01X28296Y10396D01*
G01X28336Y10375D01*
G01X28397Y10355D01*
G01X28500Y10355D01*
G01X28561Y10375D01*
G01X28602Y10396D01*
G01X28643Y10436D01*
G01X28664Y10478D01*
G01X28664Y10559D01*
G01X28643Y10600D01*
G01X28602Y10640D01*
G01X28561Y10661D01*
G01X28500Y10661D01*
G01X28500Y10559D02*
G01X28500Y10661D01*
G01X1669Y4748D02*
G01X1648Y4790D01*
G01X1607Y4830D01*
G01X1567Y4851D01*
G01X1484Y4851D01*
G01X1444Y4830D01*
G01X1403Y4790D01*
G01X1382Y4748D01*
G01X1361Y4688D01*
G01X1361Y4586D01*
G01X1382Y4523D01*
G01X1403Y4482D01*
G01X1444Y4442D01*
G01X1484Y4421D01*
G01X1567Y4421D01*
G01X1607Y4442D01*
G01X1648Y4482D01*
G01X1669Y4523D01*
G01X1823Y4748D02*
G01X1823Y4769D01*
G01X1844Y4811D01*
G01X1865Y4830D01*
G01X1905Y4851D01*
G01X1988Y4851D01*
G01X2028Y4830D01*
G01X2048Y4811D01*
G01X2069Y4769D01*
G01X2069Y4728D01*
G01X2048Y4688D01*
G01X2007Y4626D01*
G01X1803Y4421D01*
G01X2090Y4421D01*
G01X3300Y7508D02*
G01X3319Y7467D01*
G01X3361Y7426D01*
G01X3401Y7405D01*
G01X3463Y7385D01*
G01X3565Y7385D01*
G01X3626Y7405D01*
G01X3667Y7426D01*
G01X3709Y7467D01*
G01X3728Y7508D01*
G01X3728Y7590D01*
G01X3709Y7630D01*
G01X3667Y7671D01*
G01X3626Y7692D01*
G01X3565Y7712D01*
G01X3463Y7712D01*
G01X3401Y7692D01*
G01X3361Y7671D01*
G01X3319Y7630D01*
G01X3300Y7590D01*
G01X3300Y7508D01*
G01X3646Y7569D02*
G01X3769Y7692D01*
G01X3380Y7847D02*
G01X3361Y7888D01*
G01X3300Y7950D01*
G01X3728Y7950D01*
G01X24890Y2600D02*
G01X25115Y2600D01*
G01X24993Y2436D01*
G01X25055Y2436D01*
G01X25094Y2415D01*
G01X25115Y2396D01*
G01X25135Y2334D01*
G01X25135Y2294D01*
G01X25115Y2232D01*
G01X25075Y2190D01*
G01X25014Y2171D01*
G01X24952Y2171D01*
G01X24890Y2190D01*
G01X24869Y2211D01*
G01X24850Y2253D01*
G01X25292Y2273D02*
G01X25271Y2253D01*
G01X25292Y2232D01*
G01X25311Y2253D01*
G01X25292Y2273D01*
G01X25488Y2600D02*
G01X25713Y2600D01*
G01X25589Y2436D01*
G01X25652Y2436D01*
G01X25693Y2415D01*
G01X25713Y2396D01*
G01X25734Y2334D01*
G01X25734Y2294D01*
G01X25713Y2232D01*
G01X25672Y2190D01*
G01X25610Y2171D01*
G01X25550Y2171D01*
G01X25488Y2190D01*
G01X25468Y2211D01*
G01X25447Y2253D01*
G01X25868Y2600D02*
G01X26031Y2171D01*
G01X26196Y2600D02*
G01X26031Y2171D01*
G01X20000Y3498D02*
G01X20000Y3069D01*
G01X20000Y3498D02*
G01X20184Y3498D01*
G01X20244Y3478D01*
G01X20265Y3459D01*
G01X20285Y3417D01*
G01X20285Y3376D01*
G01X20265Y3336D01*
G01X20244Y3315D01*
G01X20184Y3294D01*
G01X20000Y3294D01*
G01X20143Y3294D02*
G01X20285Y3069D01*
G01X20667Y3438D02*
G01X20646Y3478D01*
G01X20585Y3498D01*
G01X20543Y3498D01*
G01X20482Y3478D01*
G01X20442Y3417D01*
G01X20421Y3315D01*
G01X20421Y3213D01*
G01X20442Y3130D01*
G01X20482Y3090D01*
G01X20543Y3069D01*
G01X20564Y3069D01*
G01X20626Y3090D01*
G01X20667Y3130D01*
G01X20686Y3192D01*
G01X20686Y3213D01*
G01X20667Y3273D01*
G01X20626Y3315D01*
G01X20564Y3336D01*
G01X20543Y3336D01*
G01X20482Y3315D01*
G01X20442Y3273D01*
G01X20421Y3213D01*
G01X24050Y14548D02*
G01X24050Y14119D01*
G01X24050Y14548D02*
G01X24234Y14548D01*
G01X24294Y14528D01*
G01X24315Y14509D01*
G01X24335Y14467D01*
G01X24335Y14426D01*
G01X24315Y14386D01*
G01X24294Y14365D01*
G01X24234Y14344D01*
G01X24050Y14344D01*
G01X24193Y14344D02*
G01X24335Y14119D01*
G01X24511Y14548D02*
G01X24736Y14548D01*
G01X24614Y14386D01*
G01X24676Y14386D01*
G01X24717Y14365D01*
G01X24736Y14344D01*
G01X24757Y14284D01*
G01X24757Y14242D01*
G01X24736Y14180D01*
G01X24696Y14140D01*
G01X24635Y14119D01*
G01X24573Y14119D01*
G01X24511Y14140D01*
G01X24492Y14161D01*
G01X24471Y14201D01*
G54D10*
G75*
G01X4780Y1009D02*
G03X3220Y1009I-780J590D01*
G01*
G75*
G01X5400Y16950D02*
G02X4600Y16950I-400J0D01*
G01*
G75*
G01X5591Y8330D02*
G03X5591Y6770I-590J-780D01*
G01*
G75*
G01X6240Y4550D02*
G03X6240Y4550I-1240J0D01*
G01*
G75*
G01X22277Y19019D02*
G03X22277Y19019I-295J0D01*
G01*
G75*
G01X22671Y19019D02*
G03X22671Y19019I-689J0D01*
G01*
G75*
G01X9313Y18981D02*
G03X9313Y18981I-295J0D01*
G01*
G75*
G01X9707Y18981D02*
G03X9707Y18981I-689J0D01*
G01*

%LPD*%
G36*
G01X4150Y3650D02*
G01X4150Y5450D01*
G01X4127Y5428D01*
G01X4104Y5407D01*
G01X4083Y5384D01*
G01X4061Y5361D01*
G01X4041Y5338D01*
G01X4021Y5314D01*
G01X4001Y5289D01*
G01X3965Y5239D01*
G01X3947Y5213D01*
G01X3930Y5187D01*
G01X3914Y5160D01*
G01X3899Y5133D01*
G01X3884Y5105D01*
G01X3870Y5077D01*
G01X3857Y5049D01*
G01X3845Y5020D01*
G01X3833Y4992D01*
G01X3822Y4962D01*
G01X3812Y4933D01*
G01X3802Y4903D01*
G01X3778Y4813D01*
G01X3766Y4751D01*
G01X3762Y4721D01*
G01X3754Y4659D01*
G01X3752Y4627D01*
G01X3750Y4596D01*
G01X3750Y4503D01*
G01X3752Y4472D01*
G01X3754Y4440D01*
G01X3762Y4378D01*
G01X3766Y4348D01*
G01X3778Y4286D01*
G01X3802Y4196D01*
G01X3812Y4166D01*
G01X3822Y4137D01*
G01X3833Y4107D01*
G01X3845Y4079D01*
G01X3857Y4050D01*
G01X3870Y4022D01*
G01X3884Y3994D01*
G01X3899Y3966D01*
G01X3914Y3939D01*
G01X3930Y3912D01*
G01X3947Y3886D01*
G01X3965Y3860D01*
G01X4001Y3810D01*
G01X4021Y3785D01*
G01X4041Y3761D01*
G01X4061Y3738D01*
G01X4083Y3715D01*
G01X4104Y3692D01*
G01X4150Y3650D01*
G37*
M00*
M02*
