G04 Layer: BottomLayer*
G04 EasyEDA v6.2.46, 2019-12-13T21:01:04+01:00*
G04 3005faa94037452eb19f5b3c810bd7e0,39ff71f2194a49368f8d12cd3c9184f8,10*
G04 Gerber Generator version 0.2*
G04 Scale: 100 percent, Rotated: No, Reflected: No *
G04 Dimensions in inches *
G04 leading zeros omitted , absolute positions ,2 integer and 4 decimal *
%FSLAX24Y24*%
%MOIN*%
G90*
G70D02*

%ADD10C,0.010000*%
%ADD11C,0.024000*%
%ADD14R,0.062000X0.062000*%
%ADD15C,0.062000*%
%ADD16C,0.060000*%
%ADD17C,0.074000*%
%ADD18C,0.078740*%
%ADD19R,0.074803X0.074803*%
%ADD20C,0.074803*%
%ADD21R,0.051000X0.051000*%
%ADD22C,0.051000*%
%ADD23C,0.066929*%
%ADD24C,0.070866*%
%ADD25R,0.070866X0.070866*%
%ADD26C,0.047000*%
%ADD27C,0.039370*%

%LPD*%
G54D10*
G01X25500Y7411D02*
G01X25500Y1961D01*
G01X25900Y15594D02*
G01X26823Y14669D01*
G01X26823Y9223D01*
G01X25500Y7900D01*
G01X25500Y7411D01*
G01X16839Y8732D02*
G01X18163Y7411D01*
G01X25500Y7411D01*
G01X4500Y1600D02*
G01X4500Y3550D01*
G01X5500Y4550D01*
G01X6575Y16450D02*
G01X8021Y15003D01*
G01X8021Y8428D01*
G01X9500Y6950D01*
G01X2500Y5450D02*
G01X2500Y7450D01*
G01X1500Y8450D01*
G01X25900Y16000D02*
G01X25900Y15594D01*
G01X25500Y1500D02*
G01X25500Y1961D01*
G01X9500Y14025D02*
G01X11584Y11940D01*
G01X11584Y11488D01*
G01X9500Y14550D02*
G01X9500Y14025D01*
G01X22450Y3950D02*
G01X21217Y3950D01*
G01X13968Y11198D01*
G01X11450Y11198D01*
G01X10097Y12551D01*
G01X10097Y12961D01*
G01X8460Y14598D01*
G01X8460Y15286D01*
G01X6752Y16992D01*
G01X6352Y16992D01*
G01X6060Y16700D01*
G01X6060Y14963D01*
G01X6575Y14450D01*
G01X27500Y3500D02*
G01X27500Y3961D01*
G01X27500Y9500D02*
G01X26993Y8992D01*
G01X26993Y4467D01*
G01X27500Y3961D01*
G01X3425Y9450D02*
G01X3425Y10450D01*
G01X5000Y8050D02*
G01X4825Y8050D01*
G01X3425Y9450D01*
G01X3425Y11450D02*
G01X3425Y10450D01*
G01X7721Y19886D02*
G01X5831Y17996D01*
G01X5831Y7692D01*
G01X5189Y7050D01*
G01X5000Y7050D01*
G01X24521Y11500D02*
G01X24521Y15800D01*
G01X22690Y17630D01*
G01X22690Y19296D01*
G01X23280Y19886D01*
G01X22450Y7950D02*
G01X24521Y10021D01*
G01X24521Y11500D01*
G01X24521Y11500D02*
G01X26050Y11500D01*
G01X26050Y11500D02*
G01X26050Y9550D01*
G01X27500Y1500D02*
G01X27500Y1961D01*
G01X27500Y1961D02*
G01X27960Y2421D01*
G01X27960Y7038D01*
G01X27500Y7500D01*
G01X3500Y1600D02*
G01X3500Y3550D01*
G01X4500Y4550D01*
G01X5000Y7050D02*
G01X4500Y6550D01*
G01X4500Y4550D01*
G01X11300Y1550D02*
G01X7500Y5350D01*
G01X7500Y6950D01*
G01X6575Y13450D02*
G01X7060Y12963D01*
G01X7060Y7390D01*
G01X7500Y6950D01*
G01X6575Y15450D02*
G01X7368Y14655D01*
G01X7368Y8259D01*
G01X10021Y5607D01*
G01X10021Y5109D01*
G01X10235Y4896D01*
G01X14602Y4896D01*
G01X17000Y2500D01*
G01X22050Y13550D02*
G01X22050Y11500D01*
G01X9500Y15550D02*
G01X10280Y16328D01*
G01X10280Y18113D01*
G01X7300Y1550D02*
G01X6756Y1007D01*
G01X3355Y1007D01*
G01X2000Y2363D01*
G01X2000Y6950D01*
G01X1500Y7450D01*
G01X26050Y13550D02*
G01X26622Y12976D01*
G01X26622Y9378D01*
G01X26253Y9009D01*
G01X25801Y9009D01*
G01X24985Y9825D01*
G01X24985Y10876D01*
G54D14*
G01X10500Y5500D03*
G01X12500Y5500D03*
G01X14500Y5500D03*
G01X16500Y5500D03*
G01X18500Y5500D03*
G01X1500Y17500D03*
G01X1500Y15500D03*
G01X1500Y13500D03*
G01X1500Y11500D03*
G01X9500Y12500D03*
G01X20500Y9950D03*
G01X20500Y5500D03*
G54D15*
G01X1500Y7450D03*
G01X1500Y8450D03*
G54D14*
G01X1500Y9450D03*
G54D16*
G01X5500Y4550D03*
G01X4500Y4550D03*
G54D17*
G01X22050Y9550D03*
G01X26050Y9550D03*
G01X7500Y2950D03*
G01X7500Y6950D03*
G01X11300Y1550D03*
G01X7300Y1550D03*
G01X22450Y7950D03*
G01X22450Y3950D03*
G01X24500Y3950D03*
G01X24500Y7950D03*
G01X9500Y6950D03*
G01X9500Y10950D03*
G01X13000Y2500D03*
G01X17000Y2500D03*
G01X22050Y11500D03*
G01X26050Y11500D03*
G54D14*
G01X27500Y5500D03*
G01X27500Y3500D03*
G01X27500Y1500D03*
G54D18*
G01X20720Y18114D03*
G01X23279Y18114D03*
G01X23279Y19885D03*
G01X20720Y19885D03*
G01X10279Y19885D03*
G01X7720Y19885D03*
G01X7720Y18114D03*
G01X10279Y18114D03*
G54D19*
G01X9500Y14550D03*
G54D20*
G01X9500Y15550D03*
G54D21*
G01X25900Y16000D03*
G54D22*
G01X25900Y17000D03*
G01X25900Y18000D03*
G01X25900Y19000D03*
G54D23*
G01X3425Y16450D03*
G01X3425Y15450D03*
G01X3425Y10450D03*
G01X3425Y9450D03*
G01X3425Y14450D03*
G01X3425Y13450D03*
G01X3425Y11450D03*
G01X3425Y12450D03*
G01X6574Y9450D03*
G01X6574Y10450D03*
G01X6574Y11450D03*
G01X6574Y12450D03*
G01X6574Y13450D03*
G01X6574Y14450D03*
G01X6574Y15450D03*
G01X6574Y16450D03*
G54D24*
G01X27500Y7500D03*
G01X27500Y8500D03*
G01X27500Y9500D03*
G01X27500Y10500D03*
G01X27500Y11500D03*
G54D25*
G01X27500Y12500D03*
G54D26*
G01X2500Y5450D03*
G01X1500Y5450D03*
G54D14*
G01X25500Y1500D03*
G54D17*
G01X18000Y2500D03*
G01X22000Y2500D03*
G01X22050Y13550D03*
G01X26050Y13550D03*
G54D11*
G01X16839Y8732D03*
G01X11584Y11488D03*
G01X24985Y10876D03*
G54D27*
G01X3500Y1796D02*
G01X3500Y1403D01*
G01X4000Y1796D02*
G01X4000Y1403D01*
G01X4500Y1796D02*
G01X4500Y1403D01*
G01X4803Y7050D02*
G01X5196Y7050D01*
G01X4803Y7550D02*
G01X5196Y7550D01*
G01X4803Y8050D02*
G01X5196Y8050D01*
M00*
M02*
